<?xml version="1.0" encoding="UTF-8"?><svg id="Layer_1" xmlns="http://www.w3.org/2000/svg" viewBox="0 0 235.08 52.1"><defs><style>.cls-1{fill:#fff;}</style></defs><g><path class="cls-1" d="M24.82,16.85l-.66-.66h-1.15l-.66,.66v7.03l.66,.66h3.09l1.97,1.97v10.06l-1.97,1.97h-4.99l-1.97-1.97v-5.22h3.15v3.91l.66,.66h1.31l.66-.66v-7.36l-.66-.66h-3.09l-1.97-1.97V15.53l1.97-1.97h4.83l1.97,1.97v5.26h-3.15v-3.94Z"/><path class="cls-1" d="M33.24,13.56h3.15v24.97h-3.15V13.56Z"/><path class="cls-1" d="M47.17,38.54l-2.46-19.58v19.58h-2.86V13.56h4.57l2.33,20.18,2.33-20.18h4.67v24.97h-2.99V18.95l-2.46,19.58h-3.12Z"/><path class="cls-1" d="M61.2,13.56h7.13l1.97,1.97v11.04l-1.97,1.97h-3.98v9.99h-3.15V13.56Zm5.95,11.7v-8.41l-.66-.66h-2.14v9.73h2.14l.66-.66Z"/><path class="cls-1" d="M75.26,38.54V13.56h3.15v22.28h4.17v2.69h-7.33Z"/><path class="cls-1" d="M87.29,13.56h7.79v2.69h-4.63v8.28h4.04v2.69h-4.04v8.61h4.7v2.69h-7.85V13.56Z"/><path class="cls-1" d="M108.65,13.56h7.3l1.97,1.97v10.38l-1.74,1.74,1.97,10.88h-3.06l-1.94-10.65h-1.35v10.65h-3.15V13.56Zm6.11,11.11v-7.82l-.66-.66h-2.3v9.14h2.3l.66-.66Z"/><path class="cls-1" d="M132.64,36.56l-1.97,1.97h-5.49l-1.97-1.97V15.53l1.97-1.97h5.49l1.97,1.97v21.03Zm-5.62-20.31l-.66,.66v18.27l.66,.66h1.81l.66-.66V16.91l-.66-.66h-1.81Z"/><path class="cls-1" d="M140.79,32.09l-.62,6.44h-3.15l2.99-24.97h4.53l3.06,24.97h-3.29l-.62-6.44h-2.89Zm1.45-15.28l-1.22,12.59h2.43l-1.22-12.59Z"/><path class="cls-1" d="M157.45,16.85l-.66-.66h-1.15l-.66,.66v7.03l.66,.66h3.09l1.97,1.97v10.06l-1.97,1.97h-4.99l-1.97-1.97v-5.22h3.15v3.91l.66,.66h1.31l.66-.66v-7.36l-.66-.66h-3.09l-1.97-1.97V15.53l1.97-1.97h4.83l1.97,1.97v5.26h-3.15v-3.94Z"/><path class="cls-1" d="M171.09,16.19v22.34h-3.15V16.19h-2.99v-2.63h9.14v2.63h-2.99Z"/><path class="cls-1" d="M178.74,13.56h7.79v2.69h-4.63v8.28h4.04v2.69h-4.04v8.61h4.7v2.69h-7.85V13.56Z"/><path class="cls-1" d="M191.56,13.56h7.29l1.97,1.97v10.38l-1.74,1.74,1.97,10.88h-3.06l-1.94-10.65h-1.35v10.65h-3.15V13.56Zm6.11,11.11v-7.82l-.66-.66h-2.3v9.14h2.3l.66-.66Z"/><path class="cls-1" d="M209.04,38.54v-8.18l-3.81-16.79h3.38l1.97,12.26,1.97-12.26h3.38l-3.81,16.79v8.18h-3.09Z"/></g><path class="cls-1" d="M230.47,47.48H4.61v-8.95H0v13.56H235.08v-13.56h-4.61v8.95ZM0,0V13.56H4.61V4.61H230.47V13.56h4.61V0H0Z"/></svg>